<svg xmlns="http://www.w3.org/2000/svg" width="74" height="42.385" viewBox="0 0 74 42.385"><defs><style>.a{fill:#ba6557;}</style></defs><g transform="translate(-1151.844 -297.453)"><path class="a" d="M1206.521,447.059a8.4,8.4,0,1,0,8.4,8.4A8.4,8.4,0,0,0,1206.521,447.059Zm0,13.852a5.48,5.48,0,1,1,5.48-5.48A5.48,5.48,0,0,1,1206.521,460.911Z" transform="translate(-38.362 -124.03)"/><g transform="translate(1151.844 297.453)"><path class="a" d="M1324.709,508.235c-7.071,0-13.972-.011-18.381-.024a11.08,11.08,0,0,1-1.1,3.162c4.383.014,12.048.027,19.871.027h.726A11.082,11.082,0,0,1,1324.709,508.235Z" transform="translate(-1279.004 -472.18)"/><path class="a" d="M1225.824,330.277c-.008-.374-.017-.753-.02-1.3h0a10.335,10.335,0,0,0-.676-3.294,8.683,8.683,0,0,1-.511-2.094,12.4,12.4,0,0,0-2.719-7.393,16.679,16.679,0,0,0-10.177-5.394c-3.057-2.675-5.662-4.931-8.32-7.15-3.857-3.22-8.873-6.2-19.364-6.2-3.386,0-6.81.152-10.122.3-1.343.06-2.685.119-4.026.169-.8.03-1.6.048-2.4.066-1.442.033-2.933.067-4.408.169l-.069,0c-.873.058-2.5.167-3.308,1.422a7.691,7.691,0,0,0-.765,2.312l-.059.259a21.217,21.217,0,0,1-1.335,3.689c-.143.33-.29.668-.438,1.022a30.844,30.844,0,0,0-1.732,5.652c-.2.948-.451,2.827-.618,4.071-.063.469-.11.821-.129.929a6.6,6.6,0,0,1-1,2.154,8.506,8.506,0,0,0-1.453,3.635c-.172,1.6-.316,3.037-.332,4.522-.04,3.577.555,7,5.144,7.777.3.051.6.1.906.144a11.078,11.078,0,0,1-.823-3.346c-1.246-.253-2.1-.789-2.061-4.539.015-1.344.151-2.705.314-4.218a5.76,5.76,0,0,1,1.008-2.326,9.386,9.386,0,0,0,1.405-3.21c.025-.134.059-.378.156-1.1.151-1.126.405-3.011.58-3.848a27.7,27.7,0,0,1,1.551-5.071c.144-.342.286-.67.424-.99a24.009,24.009,0,0,0,1.511-4.217l.067-.294c.056-.247.187-.831.3-1.16a5.928,5.928,0,0,1,.9-.111l.074,0c1.4-.1,2.858-.13,4.265-.162.816-.019,1.631-.038,2.443-.068,1.349-.05,2.7-.11,4.049-.17,3.277-.145,6.666-.3,9.982-.3,8.955,0,13.407,2.185,17.336,5.465,2.732,2.281,5.416,4.608,8.6,7.4l.347.3.455.07c3.828.589,6.753,2.061,8.695,4.375a9.372,9.372,0,0,1,1.986,5.577,11.431,11.431,0,0,0,.664,2.87,7.5,7.5,0,0,1,.516,2.316h0c0,.569.012.963.02,1.352.013.573.025,1.113.017,2.206,0,.487-1.272.88-2.887.9l-.288,0a11.077,11.077,0,0,1-1.1,3.174l1.416-.011c3.755-.035,6.007-1.544,6.024-4.039C1225.85,331.436,1225.837,330.847,1225.824,330.277Z" transform="translate(-1151.844 -297.453)"/></g><path class="a" d="M1442.408,447.059a8.4,8.4,0,1,0,8.4,8.4A8.4,8.4,0,0,0,1442.408,447.059Zm0,13.852a5.48,5.48,0,1,1,5.48-5.48A5.48,5.48,0,0,1,1442.408,460.911Z" transform="translate(-233.922 -124.03)"/><path class="a" d="M1262.525,335.961c-.557.06-1.338.167-1.889.283-3.171.67-4.8,4.692-5.1,7.576-.225,1.791.9,1.728,1.995,1.76l4.343.128c.146,0,.56.029.71.029a.667.667,0,0,0,.743-.743v-8.308a.812.812,0,0,0-.146-.521A.721.721,0,0,0,1262.525,335.961Z" transform="translate(-85.943 -31.918)"/><path class="a" d="M1340.443,343.742a51.973,51.973,0,0,0-4.313-4.092c-3.7-3.284-9.64-4.419-15-4.406-.647,0-1.13-.011-1.708-.022-.16,0-.351-.011-.53-.011a.742.742,0,0,0-.743.743v8.539a.716.716,0,0,0,.2.506.758.758,0,0,0,.523.242l.609.018,18.012.529c.861.026,2.607.143,3.266-.736C1341.027,344.7,1340.641,343.961,1340.443,343.742Z" transform="translate(-137.877 -31.303)"/></g></svg>