<svg xmlns="http://www.w3.org/2000/svg" width="54.825" height="54.825" viewBox="0 0 54.825 54.825"><defs><style>.a{fill:#fff;}</style></defs><g transform="translate(-150 -150)"><g transform="translate(150 150)"><path class="a" d="M151.181,187.081A1.182,1.182,0,0,0,150,188.262v7.086a1.181,1.181,0,0,0,1.181,1.181,18.8,18.8,0,0,1,18.783,18.785,1.181,1.181,0,0,0,1.181,1.181h7.091a1.181,1.181,0,0,0,1.175-1.3A28.264,28.264,0,0,0,151.181,187.081Zm21.111,27.052a21.177,21.177,0,0,0-19.93-19.933v-4.73a25.907,25.907,0,0,1,24.66,24.663Z" transform="translate(-150 -161.669)"/><path class="a" d="M151.181,168.122A1.181,1.181,0,0,0,150,169.3v7.086a1.18,1.18,0,0,0,1.181,1.181,31.811,31.811,0,0,1,31.773,31.777,1.181,1.181,0,0,0,1.181,1.181h7.091a1.181,1.181,0,0,0,1.181-1.181,1.164,1.164,0,0,0-.005-.121A41.27,41.27,0,0,0,151.181,168.122ZM185.3,208.166a34.181,34.181,0,0,0-32.934-32.938V170.5a38.911,38.911,0,0,1,37.66,37.664Z" transform="translate(-150 -155.703)"/><path class="a" d="M204.819,203.524A53.7,53.7,0,0,0,151.181,150,1.182,1.182,0,0,0,150,151.181v7.086a1.18,1.18,0,0,0,1.181,1.181,44.245,44.245,0,0,1,44.192,44.2,1.181,1.181,0,0,0,1.181,1.181h7.091a1.181,1.181,0,0,0,1.175-1.3Zm-7.1-1.06A46.615,46.615,0,0,0,152.362,157.1v-4.725a51.348,51.348,0,0,1,50.083,50.089Z" transform="translate(-150 -150)"/><path class="a" d="M151.181,208.848A1.181,1.181,0,0,0,150,210.029v12.134a1.181,1.181,0,0,0,1.181,1.181h12.132a1.181,1.181,0,0,0,1.181-1.181A13.329,13.329,0,0,0,151.181,208.848Zm1.181,12.134v-9.709a10.973,10.973,0,0,1,9.708,9.709Z" transform="translate(-150 -168.518)"/></g></g></svg>