<svg xmlns="http://www.w3.org/2000/svg" width="72.125" height="48.416" viewBox="0 0 72.125 48.416"><defs><style>.a{fill:#fff;}</style></defs><path class="a" d="M2020.547,1256.229c3.2,0,5.811-2.232,5.811-4.976v-3.673h4.772v16.77h-1.758c-3.35,0-6.075,2.333-6.075,5.2v13.1a1.712,1.712,0,0,0,1.828,1.565h19.556a1.712,1.712,0,0,0,1.827-1.565v-11.761h8.579v11.761a1.712,1.712,0,0,0,1.828,1.565h19.556a1.712,1.712,0,0,0,1.828-1.565v-13.1c0-2.868-2.726-5.2-6.075-5.2h-1.758v-16.77h4.772v3.673c0,2.744,2.607,4.976,5.811,4.976s5.811-2.232,5.811-4.976v-10.476c0-2.744-2.606-4.976-5.811-4.976s-5.811,2.232-5.811,4.976v3.673h-4.772v-2.323a1.85,1.85,0,0,0-3.655,0v2.323h-32.026v-2.323a1.85,1.85,0,0,0-3.656,0v2.323h-4.772v-3.673c0-2.744-2.607-4.976-5.811-4.976s-5.811,2.232-5.811,4.976v10.476C2014.736,1254,2017.343,1256.229,2020.547,1256.229Zm58.348-15.452a2.181,2.181,0,0,1,4.31,0v10.476a2.181,2.181,0,0,1-4.31,0Zm-51.942,28.774a2.268,2.268,0,0,1,2.419-2.071h1.758v13.607h-4.177Zm31.246-1.791h-14.8a.818.818,0,0,1-.872-.747v-2.2a.818.818,0,0,1,.872-.747h14.8a.818.818,0,0,1,.872.747v2.2A.818.818,0,0,1,2058.2,1267.761Zm14.026-.281a2.268,2.268,0,0,1,2.419,2.071v11.536h-4.177v-13.607Zm-5.413-19.9v33.507h-8.068v-10.226a4.152,4.152,0,0,0,3.983-3.848v-2.2c0-2.138-2.031-3.877-4.527-3.877h-14.8c-2.5,0-4.528,1.739-4.528,3.877v2.2a4.152,4.152,0,0,0,3.983,3.848v10.226h-8.068v-33.507Zm-48.42-6.8a2.181,2.181,0,0,1,4.31,0v10.476a2.181,2.181,0,0,1-4.31,0Z" transform="translate(-2014.736 -1235.802)"/></svg>