<svg xmlns="http://www.w3.org/2000/svg" width="57.286" height="42.127" viewBox="0 0 57.286 42.127"><defs><style>.a{fill:#fff;stroke:#fff;stroke-width:0.5px;}</style></defs><path class="a" d="M1886.1,1117.847a14.4,14.4,0,0,0-1.795.11,14.871,14.871,0,0,0-1.195-1.348l-10.522-10.522-10.522,10.522a14.85,14.85,0,0,0-1.195,1.348,14.408,14.408,0,0,0-1.795-.11H1844.2v14.881a14.9,14.9,0,0,0,14.881,14.882H1886.1a14.9,14.9,0,0,0,14.881-14.882v-14.881Zm-27.023,5.206h-.795a14.88,14.88,0,0,0,3.784,14.6l4.751,4.751,1.935,1.937.529.529h-10.2a12.156,12.156,0,0,1-12.141-12.141v-12.141h12.287a12.148,12.148,0,0,1,12,12.141v10.2l-7.215-7.215a12.147,12.147,0,0,1-2.921-12.451A9.48,9.48,0,0,0,1859.08,1123.054Zm13.511,3.439a14.61,14.61,0,0,0-1.472-2.5,14.92,14.92,0,0,0-7.214-5.343c.033-.036.066-.069.1-.1l8.585-8.585,8.585,8.585c.036.036.069.069.1.1a14.919,14.919,0,0,0-7.215,5.343A14.618,14.618,0,0,0,1872.592,1126.492Zm25.653,6.236a12.156,12.156,0,0,1-12.141,12.141h-10.2l.529-.529,1.935-1.937,4.751-4.751a14.88,14.88,0,0,0,3.784-14.6h-.795a9.481,9.481,0,0,0-2.006.211,12.146,12.146,0,0,1-2.921,12.451l-7.215,7.215v-10.2a12.147,12.147,0,0,1,12-12.141h12.286Z" transform="translate(-1843.949 -1105.733)"/></svg>