<svg xmlns="http://www.w3.org/2000/svg" width="70.114" height="54.826" viewBox="0 0 70.114 54.826"><defs><style>.a{fill:#fff;}</style></defs><path class="a" d="M3730.434,2857.618a6.886,6.886,0,0,0-6.878,6.878v11.125h-21.21a1.846,1.846,0,0,0,0,3.693h21.21V2910.6a1.846,1.846,0,1,0,3.693,0v-9.159h19.364v9.159a1.846,1.846,0,0,0,3.693,0v-31.283h18.462a1.846,1.846,0,0,0,0-3.693h-8.4V2864.5a6.878,6.878,0,1,0-13.756,0v11.125h-9.3V2864.5A6.886,6.886,0,0,0,3730.434,2857.618Zm-3.185,6.878a3.185,3.185,0,1,1,6.37,0v11.125h-6.37Zm0,33.249v-7.369h19.364v7.369Zm23.057-33.249a3.185,3.185,0,1,1,6.37,0v11.125h-6.37Zm-3.693,22.187h-19.364v-7.369h19.364Z" transform="translate(-3700.499 -2857.618)"/></svg>