<svg xmlns="http://www.w3.org/2000/svg" width="47" height="47" viewBox="0 0 47 47"><defs><style>.a{fill:#fff;stroke:#e2e2e2;}.b{fill:#53565a;fill-rule:evenodd;}.c{stroke:none;}.d{fill:none;}</style></defs><g transform="translate(380 2748.58) rotate(180)"><g class="a" transform="translate(333 2701.58)"><circle class="c" cx="23.5" cy="23.5" r="23.5"/><circle class="d" cx="23.5" cy="23.5" r="23"/></g><path class="b" d="M7.4,15.03.063,7.691a.2.2,0,0,1,0-.287L7.4.063a.194.194,0,0,1,.287,0l.945.945L2.847,6.8H18.658a.828.828,0,0,1,.827.827h0a.825.825,0,0,1-.827.81H2.983l5.653,5.653-.945.944a.194.194,0,0,1-.287,0Z" transform="translate(366.008 2732.12) rotate(180)"/></g></svg>