<svg xmlns="http://www.w3.org/2000/svg" width="176.719" height="51.13" viewBox="0 0 176.719 51.13">
  <g id="Group_599" data-name="Group 599" transform="translate(-671 -1002)">
    <g id="Group_575" data-name="Group 575" transform="translate(671 1002)">
      <path id="Path_3880" data-name="Path 3880" d="M231.9,141.666v6.628h-5.319v-6.628H223v14.649h3.58v-6.861H231.9v6.861h3.58V141.666Z" transform="translate(-173.893 -105.213)" fill="#53565a"/>
      <path id="Path_3881" data-name="Path 3881" d="M270.661,141.665v14.648h9.347v-1.464h-5.77V149.22H278V147.9h-3.764v-4.771h5.77v-1.467Z" transform="translate(-203.202 -105.212)" fill="#53565a"/>
      <path id="Path_3882" data-name="Path 3882" d="M189.573,162.388l5.113,6.7h3.754l-5.17-6.7Z" transform="translate(-153.333 -117.956)" fill="#53565a"/>
      <path id="Path_3883" data-name="Path 3883" d="M346.229,141.665v14.648h10.915v-1.464h-7.334V141.665Z" transform="translate(-249.675 -105.212)" fill="#53565a"/>
      <path id="Path_3884" data-name="Path 3884" d="M308.444,141.665v14.648h9.347v-1.464h-5.767V149.22h3.761V147.9h-3.761v-4.771h5.767v-1.467Z" transform="translate(-226.438 -105.212)" fill="#53565a"/>
      <rect id="Rectangle_437" data-name="Rectangle 437" width="0.015" height="7.322" transform="translate(35.449 43.779)" fill="#53565a"/>
      <path id="Path_3885" data-name="Path 3885" d="M104.449,141.672v7.871l-5.427-7.871H95.448v14.646h1.78V145.041l7.83,11.277h1.363V141.672Z" transform="translate(-95.448 -105.216)" fill="#53565a"/>
      <path id="Path_3886" data-name="Path 3886" d="M138.174,144.466l2.043,4.839H136.2Zm.03-4.3-6.254,15.224h.107l-.012.028H133.7l2.132-5.216h4.747l2.214,5.216h3.534L139.7,140.17Z" transform="translate(-117.897 -104.293)" fill="#53565a"/>
      <path id="Path_3887" data-name="Path 3887" d="M178.271,141.665v14.648h3.562v-7.323h2.637l5.666-5.929h-2.915l-5.038,5.283h-.334v-6.68Z" transform="translate(-146.383 -105.212)" fill="#53565a"/>
      <path id="Path_3888" data-name="Path 3888" d="M488.2,141.665v14.648h10.915v-1.464h-7.335V141.665Z" transform="translate(-336.984 -105.212)" fill="#53565a"/>
      <path id="Path_3889" data-name="Path 3889" d="M526.593,141.665v14.648h10.723v-1.464h-7.142V141.665Z" transform="translate(-360.597 -105.212)" fill="#53565a"/>
      <path id="Path_3890" data-name="Path 3890" d="M448.23,144.466l2.043,4.839h-4.019Zm.03-4.3-6.254,15.224h.107l-.012.028h1.654l2.132-5.216h4.746l2.215,5.216h3.534l-6.624-15.251Z" transform="translate(-308.577 -104.293)" fill="#53565a"/>
      <path id="Path_3891" data-name="Path 3891" d="M409.965,141.668l-.012.018-4.81,6.977-5.116-6.977-.012-.018h-1.96v14.646h1.973v-8.675l5.116,6.928,4.81-6.928v8.675h1.972V141.668Z" transform="translate(-281.547 -105.214)" fill="#53565a"/>
      <g id="Group_574" data-name="Group 574" transform="translate(14.946 0)">
        <path id="Path_3892" data-name="Path 3892" d="M370.4,53.082h-9.274v1.8a16.78,16.78,0,0,1,5.121-.556h2.641c3.365,0,5.56,3.272,5.56,6.638v1.778H327.6c.008-.683.014-.872.014-1.065V48.278h-3.58V62.655a4.739,4.739,0,0,1-4.681,4.982,4.788,4.788,0,0,1-4.742-4.982v-.583h0V58.208h-1.594v4.819a6.535,6.535,0,0,0,2.659,5.247,7.959,7.959,0,0,0,4.552,1.314h0a7.509,7.509,0,0,0,5.013-1.757,6.836,6.836,0,0,0,2.091-3.614h50.69V60.709a7.636,7.636,0,0,0-7.628-7.627" transform="translate(-244.197 -47.78)" fill="#53565a"/>
        <path id="Path_3893" data-name="Path 3893" d="M406.4,99.668h4.993l2.14-2.478h-5.436Z" transform="translate(-301.624 -77.86)" fill="#53565a"/>
        <rect id="Rectangle_438" data-name="Rectangle 438" width="2.498" height="2.498" transform="translate(122.006 1.767) rotate(-45.006)" fill="#53565a"/>
        <path id="Path_3894" data-name="Path 3894" d="M491.278,60.756v9.671h-8.2l-1.218,1.463h13V60.756Z" transform="translate(-348.031 -55.454)" fill="#53565a"/>
        <path id="Path_3895" data-name="Path 3895" d="M218.806,60.755h-6.837l0,9.248,3.579-2.632V62h1.986c2.094,0,3.254,2.056,3.254,4.287a3.991,3.991,0,0,1-3.8,4.128H193.771c.008-.686,0-9.656,0-9.656H187.04a5.567,5.567,0,1,0,0,11.135h1.575l1.341-1.977h-1.648a3.735,3.735,0,0,1-3.8-3.838,3.964,3.964,0,0,1,3.8-4.081h1.89v8.945h0a4.954,4.954,0,0,1-5.821,4.8l-.388-.066v1.391l.276.048a9.379,9.379,0,0,0,1.605.139c1.441,0,6.549-.416,7.718-5.359l25.221,0a5.567,5.567,0,1,0,0-11.134" transform="translate(-163.297 -55.453)" fill="#53565a"/>
        <path id="Path_3896" data-name="Path 3896" d="M411.56,70.044l3.58-2.948v-6.34h-3.58Z" transform="translate(-304.799 -55.454)" fill="#53565a"/>
        <path id="Path_3897" data-name="Path 3897" d="M145.534,48.278V62.654a4.744,4.744,0,0,1-4.688,4.983,4.988,4.988,0,0,1-4.983-4.983v-.047h0v-4.4h-1.6v4.82a6.533,6.533,0,0,0,2.659,5.246,7.953,7.953,0,0,0,4.552,1.314h0a7.508,7.508,0,0,0,5.013-1.757,7.973,7.973,0,0,0,2.623-6.158l-.007-13.395Z" transform="translate(-134.267 -47.78)" fill="#53565a"/>
        <rect id="Rectangle_439" data-name="Rectangle 439" width="2.498" height="2.498" transform="matrix(0.707, -0.707, 0.707, 0.707, 143.27, 1.767)" fill="#53565a"/>
      </g>
    </g>
  </g>
</svg>
