<svg xmlns="http://www.w3.org/2000/svg" width="127.503" height="36.891" viewBox="0 0 127.503 36.891">
  <g id="logo" transform="translate(-671 -1002)">
    <g id="Group_575" data-name="Group 575" transform="translate(671 1002)">
      <path id="Path_3880" data-name="Path 3880" d="M229.424,141.666v4.782h-3.837v-4.782H223v10.569h2.583v-4.95h3.837v4.95h2.583V141.666Z" transform="translate(-187.571 -115.365)" fill="#af695b"/>
      <path id="Path_3881" data-name="Path 3881" d="M270.661,141.665v10.569H277.4v-1.056h-4.163v-4.061h2.715v-.95h-2.715v-3.442H277.4v-1.059Z" transform="translate(-221.989 -115.364)" fill="#af695b"/>
      <path id="Path_3882" data-name="Path 3882" d="M189.573,162.388l3.689,4.833h2.708l-3.73-4.833Z" transform="translate(-163.426 -130.33)" fill="#af695b"/>
      <path id="Path_3883" data-name="Path 3883" d="M346.229,141.665v10.569H354.1v-1.056h-5.292v-9.513Z" transform="translate(-276.565 -115.364)" fill="#af695b"/>
      <path id="Path_3884" data-name="Path 3884" d="M308.444,141.665v10.569h6.744v-1.056h-4.161v-4.061h2.714v-.95h-2.714v-3.442h4.161v-1.059Z" transform="translate(-249.277 -115.364)" fill="#af695b"/>
      <rect id="Rectangle_437" data-name="Rectangle 437" width="0.011" height="5.283" transform="translate(25.577 31.587)" fill="#af695b"/>
      <path id="Path_3885" data-name="Path 3885" d="M101.942,141.672v5.679l-3.916-5.679H95.448v10.567h1.284V144.1l5.65,8.136h.984V141.672Z" transform="translate(-95.448 -115.369)" fill="#af695b"/>
      <path id="Path_3886" data-name="Path 3886" d="M136.441,143.27l1.474,3.492h-2.9Zm.022-3.1-4.512,10.984h.078l-.009.02h1.193l1.538-3.763h3.425l1.6,3.763h2.55l-4.779-11Z" transform="translate(-121.811 -114.284)" fill="#af695b"/>
      <path id="Path_3887" data-name="Path 3887" d="M178.271,141.665v10.569h2.57V146.95h1.9l4.088-4.278h-2.1l-3.635,3.812h-.241v-4.819Z" transform="translate(-155.263 -115.364)" fill="#af695b"/>
      <path id="Path_3888" data-name="Path 3888" d="M488.2,141.665v10.569h7.875v-1.056h-5.292v-9.513Z" transform="translate(-379.097 -115.364)" fill="#af695b"/>
      <path id="Path_3889" data-name="Path 3889" d="M526.593,141.665v10.569h7.736v-1.056h-5.153v-9.513Z" transform="translate(-406.826 -115.364)" fill="#af695b"/>
      <path id="Path_3890" data-name="Path 3890" d="M446.5,143.27l1.474,3.492h-2.9Zm.022-3.1-4.512,10.984h.077l-.009.02h1.193l1.538-3.763h3.425l1.6,3.763h2.55l-4.78-11Z" transform="translate(-345.737 -114.284)" fill="#af695b"/>
      <path id="Path_3891" data-name="Path 3891" d="M406.648,141.668l-.009.013-3.47,5.034-3.691-5.034-.009-.013h-1.414v10.567h1.423v-6.259l3.691,5,3.47-5v6.259h1.423V141.668Z" transform="translate(-313.994 -115.366)" fill="#af695b"/>
      <g id="Group_574" data-name="Group 574" transform="translate(10.784 0)">
        <path id="Path_3892" data-name="Path 3892" d="M354.417,51.744h-6.691v1.3a12.106,12.106,0,0,1,3.7-.4h1.905c2.428,0,4.012,2.361,4.012,4.789v1.283h-33.8c.006-.493.01-.629.01-.768V48.278h-2.583V58.651a3.419,3.419,0,0,1-3.377,3.595,3.454,3.454,0,0,1-3.421-3.595V58.23h0V55.442h-1.15v3.477a4.715,4.715,0,0,0,1.918,3.786,5.743,5.743,0,0,0,3.284.948h0a5.418,5.418,0,0,0,3.617-1.268,4.932,4.932,0,0,0,1.509-2.608H359.92V57.247a5.51,5.51,0,0,0-5.5-5.5" transform="translate(-263.364 -47.919)" fill="#af695b"/>
        <path id="Path_3893" data-name="Path 3893" d="M406.4,98.978H410l1.544-1.788h-3.922Z" transform="translate(-330.803 -83.243)" fill="#af695b"/>
        <rect id="Rectangle_438" data-name="Rectangle 438" width="1.802" height="1.802" transform="translate(88.028 1.275) rotate(-45.006)" fill="#af695b"/>
        <path id="Path_3894" data-name="Path 3894" d="M488.655,60.756v6.978h-5.918l-.879,1.056h9.379V60.756Z" transform="translate(-385.302 -56.931)" fill="#af695b"/>
        <path id="Path_3895" data-name="Path 3895" d="M208.408,60.755h-4.933l0,6.672,2.583-1.9V61.65h1.433c1.511,0,2.348,1.483,2.348,3.093a2.879,2.879,0,0,1-2.74,2.978H190.346c.006-.495,0-6.967,0-6.967h-4.857a4.017,4.017,0,1,0,0,8.034h1.136l.968-1.427H186.4a2.7,2.7,0,0,1-2.741-2.769,2.86,2.86,0,0,1,2.741-2.944h1.363V68.1h0a3.574,3.574,0,0,1-4.2,3.462l-.28-.048v1l.2.034a6.767,6.767,0,0,0,1.158.1c1.04,0,4.725-.3,5.569-3.866h18.2a4.017,4.017,0,1,0,0-8.033" transform="translate(-168.359 -56.93)" fill="#af695b"/>
        <path id="Path_3896" data-name="Path 3896" d="M411.56,67.458l2.583-2.127V60.757H411.56Z" transform="translate(-334.531 -56.931)" fill="#af695b"/>
        <path id="Path_3897" data-name="Path 3897" d="M142.4,48.278V58.651a3.423,3.423,0,0,1-3.382,3.6,3.6,3.6,0,0,1-3.6-3.6v-.034h0V55.442h-1.152V58.92a4.713,4.713,0,0,0,1.918,3.785,5.738,5.738,0,0,0,3.284.948h0a5.417,5.417,0,0,0,3.617-1.268,5.752,5.752,0,0,0,1.893-4.443l0-9.664Z" transform="translate(-134.267 -47.919)" fill="#af695b"/>
        <rect id="Rectangle_439" data-name="Rectangle 439" width="1.802" height="1.802" transform="matrix(0.707, -0.707, 0.707, 0.707, 103.37, 1.275)" fill="#af695b"/>
      </g>
    </g>
  </g>
</svg>
