<svg xmlns="http://www.w3.org/2000/svg" width="177.551" height="30.82" viewBox="0 0 177.551 30.82">
  <g id="Group_3" data-name="Group 3" transform="translate(-2122.991 717.413)">
    <g id="Nakheel_Brandmark_English_RGB_DeepNavy" transform="translate(2092.991 -277.413)">
      <path id="Path_1" data-name="Path 1" d="M30-424.59v15.41h7.066v-15.162c0-8.336.015-15.139.038-15.117s1.5,6.765,3.27,14.989,3.247,15.026,3.27,15.117l.038.173H57.437V-440H50.371l-.015,15.169-.023,15.169L47.109-424.7c-1.774-8.276-3.247-15.1-3.262-15.177-.03-.12-.421-.128-6.938-.128H30Z" transform="translate(0 0)" fill="#00263a"/>
      <path id="Path_2" data-name="Path 2" d="M432.427-439.835c-.06.241-6.427,30.586-6.427,30.624,0,.015,1.571.03,3.5.03h3.5l.038-.173c.023-.09.293-1.383.6-2.871s.579-2.781.6-2.879l.038-.165h10.283l.045.173c.023.1.293,1.406.609,2.909s.586,2.8.609,2.872c.038.128.271.135,3.541.135h3.5l-.038-.173c-.03-.09-1.466-6.946-3.21-15.237s-3.18-15.147-3.21-15.244l-.038-.165H432.465Zm8.983,9.674c1.075,5.134,1.954,9.351,1.954,9.374s-1.781.03-3.954.03h-3.954l.038-.21c.135-.654,3.826-18.274,3.864-18.417.023-.1.053-.158.068-.143S440.335-435.294,441.41-430.16Z" transform="translate(-366.233 0)" fill="#00263a"/>
      <path id="Path_3" data-name="Path 3" d="M813.053-439.947c-.03.023-.053,6.961-.053,15.41v15.357h7.893v-11.8l2.42.015,2.413.023,2.037,5.878,2.03,5.886h7.938l-.6-1.744c-.331-.962-1.285-3.736-2.127-6.164l-1.519-4.42H830.3c-2.781,0-3.172-.015-3.135-.113.023-.06,2.375-4.179,5.239-9.148s5.209-9.081,5.232-9.133c.03-.083-.677-.1-3.879-.1h-3.916l-.15.241c-.083.135-2.09,3.623-4.458,7.75l-4.3,7.5-.038-7.727-.038-7.727-3.879-.023C814.849-439.992,813.075-439.977,813.053-439.947Z" transform="translate(-724.142 0)" fill="#00263a"/>
      <path id="Path_4" data-name="Path 4" d="M1174-424.59v15.41h7.818l.015-6.367.023-6.374h8.87l.022,6.367.015,6.374h7.818V-440h-7.818v12.027h-5.39l-1.759,2.834-1.759,2.841-.023-8.855-.015-8.847H1174Z" transform="translate(-1058.006 0)" fill="#00263a"/>
      <path id="Path_5" data-name="Path 5" d="M1551.053-439.786c-.03.023-.052,6.961-.052,15.41v15.357h19.544v-5.713h-11.651v-7.141l4.646-.015,4.638-.023.022-2.841.015-2.834h-6.081l-1.556,2.5c-.857,1.376-1.586,2.533-1.623,2.571s-.06-2.556-.06-5.766v-5.841h11.651l-.015-2.841-.022-2.834-9.7-.022C1555.465-439.831,1551.075-439.816,1551.053-439.786Z" transform="translate(-1406.667 -0.161)" fill="#00263a"/>
      <path id="Path_6" data-name="Path 6" d="M1852-424.59v15.41h19.469v-5.713h-11.651v-7.141h9.321v-5.713h-6.051l-1.466,2.345c-.8,1.285-1.541,2.466-1.631,2.608l-.165.271-.007-5.886v-5.878h11.651V-440H1852Z" transform="translate(-1685.041 0)" fill="#00263a"/>
      <path id="Path_7" data-name="Path 7" d="M2152-424.59v15.41h18.041v-5.713h-10.223V-440H2152Z" transform="translate(-1962.49 0)" fill="#00263a"/>
    </g>
  </g>
</svg>
